<svg xmlns="http://www.w3.org/2000/svg" width="1792" height="1792"><path d="M199.111 1192.889V595.556h995.556v597.333H199.11zm1493.333-547.556q41.223 0 70.39 29.167Q1792 703.667 1792 744.889v298.667q0 41.222-29.167 70.388-29.166 29.167-70.389 29.167v124.445q0 51.333-36.555 87.888Q1619.333 1392 1568 1392H124.444q-51.333 0-87.888-36.556Q0 1318.89 0 1267.556V520.889Q0 469.556 36.556 433q36.555-36.556 87.888-36.556H1568q51.333 0 87.889 36.556 36.555 36.556 36.555 87.889v124.444zm0 398.223V744.889h-99.555v-224q0-10.889-7-17.889T1568 496H124.444q-10.888 0-17.888 7-7 7-7 17.889v746.667q0 10.888 7 17.888 7 7 17.888 7H1568q10.889 0 17.889-7t7-17.888v-224h99.555z"/></svg>